# xmcd
#
# Track frame offsets:
#	150
#	9812
#	24139
#	33141
#	47238
#	54501
#	74429
#
# Disc length: 1146 seconds
#
# Revision: 1
# Processed by: cddbd v1.5.2PL0 Copyright (c) Steve Scherf et al.
# Submitted via: audiograbber 1.83.01
#
DISCID=49047807
DTITLE=Caitlin Rose - Dead Flowers
DYEAR=2010
DGENRE=Americana
TTITLE0=Stotgun Wedding
TTITLE1=Answer In One Of These Bottles
TTITLE2=Three Cigarettes In An Ashtray
TTITLE3=Docket
TTITLE4=Gorilla Man
TTITLE5=Dead Flowers
TTITLE6=T-Shirt
EXTD=
EXTT0=
EXTT1=
EXTT2=
EXTT3=
EXTT4=
EXTT5=
EXTT6=
PLAYORDER=
